<svg xmlns="http://www.w3.org/2000/svg" viewBox="0 0 32 32" role="img" aria-label="E-Rechnung Klartext">
  <defs>
    <linearGradient id="g" x1="4" y1="2" x2="28" y2="30" gradientUnits="userSpaceOnUse">
      <stop stop-color="#60a5fa"/>
      <stop offset="0.45" stop-color="#3b82f6"/>
      <stop offset="1" stop-color="#1d4ed8"/>
    </linearGradient>
  </defs>
  <rect width="32" height="32" rx="8" fill="url(#g)"/>
  <path d="M9.5 5.5h9l5 5v15a1.5 1.5 0 0 1-1.5 1.5h-12.5a1.5 1.5 0 0 1-1.5-1.5v-18.5a1.5 1.5 0 0 1 1.5-1.5z" fill="#ffffff"/>
  <path d="M18.5 5.5v3.5a1.5 1.5 0 0 0 1.5 1.5h3.5" fill="#bfdbfe"/>
  <rect x="11" y="13.5" width="6.5" height="2" rx="1" fill="#1d4ed8"/>
  <rect x="11" y="17.5" width="10" height="2" rx="1" fill="#93c5fd"/>
  <rect x="11" y="21.5" width="10" height="2" rx="1" fill="#93c5fd"/>
</svg>
